<svg version="1.1" id="Layer_1" xmlns="http://www.w3.org/2000/svg" xmlns:xlink="http://www.w3.org/1999/xlink" x="0px" y="0px"
	 width="100%" viewBox="0 0 677 369" enable-background="new 0 0 677 369" xml:space="preserve">
<path fill="#000000" opacity="0.000000" stroke="none" 
	d="
M407.000000,370.000000 
	C271.365631,370.000000 136.231232,370.000000 1.048424,370.000000 
	C1.048424,247.061676 1.048424,124.123329 1.048424,1.092489 
	C226.551071,1.092489 452.102203,1.092489 677.826660,1.092489 
	C677.826660,123.999809 677.826660,246.999878 677.826660,370.000000 
	C587.789978,370.000000 497.644989,370.000000 407.000000,370.000000 
M336.851990,215.516434 
	C336.650391,215.217117 336.375671,215.115738 335.543274,215.061707 
	C335.378387,215.024063 335.213470,214.986435 334.721375,214.345932 
	C330.820221,211.858810 326.919037,209.371689 322.715790,206.309738 
	C319.814728,203.529709 316.913635,200.749680 313.704590,197.363541 
	C311.713623,194.416397 309.722656,191.469269 307.354645,187.963989 
	C304.644073,191.383224 302.413391,194.423080 299.943726,197.254486 
	C296.944489,200.692978 296.525238,203.873230 300.477325,207.617355 
	C309.248932,218.112671 320.099304,225.989990 332.037720,232.433884 
	C339.569916,236.499466 352.189056,232.796448 357.139740,225.534485 
	C357.359650,225.561935 357.579559,225.589371 358.381775,225.665726 
	C358.894653,225.110458 359.407562,224.555191 360.560669,223.718842 
	C364.032013,220.803223 367.503357,217.887604 371.596375,214.755539 
	C373.381317,212.862579 375.166260,210.969620 377.556396,208.744019 
	C379.034515,206.511627 380.512634,204.279236 382.055450,202.052002 
	C382.055450,202.052002 382.048615,201.987457 382.623444,201.751083 
	C383.081177,200.878204 383.538910,200.005325 384.101624,199.117142 
	C384.101624,199.117142 384.096649,199.011154 384.529694,198.868378 
	C384.828827,198.673187 384.922729,198.405899 385.110077,197.350006 
	C385.525665,196.144745 385.941223,194.939484 386.562317,193.739182 
	C386.562317,193.739182 386.665405,193.382919 386.889832,192.491592 
	C388.130615,185.447571 388.663574,178.460785 385.892853,171.579941 
	C385.025085,169.424850 384.596283,167.093018 384.615936,165.139954 
	C388.075073,166.780640 391.534180,168.421326 395.302979,170.662567 
	C399.850800,173.923233 404.758850,176.793411 408.840820,180.559082 
	C412.601959,184.028763 417.102509,186.791855 417.610535,193.433624 
	C417.892792,197.123245 422.153168,201.620911 425.793793,203.701462 
	C432.626892,207.606461 439.834656,202.977036 442.772278,193.383072 
	C442.751617,192.970322 442.730957,192.557571 442.900604,191.590332 
	C442.598267,190.740005 442.295929,189.889679 441.928406,188.297806 
	C440.406952,186.139496 439.238953,183.562393 437.286591,181.914688 
	C433.792511,178.965820 429.826019,176.576752 425.963165,173.210312 
	C422.992920,168.477005 420.022675,163.743713 416.933136,158.299423 
	C415.649567,156.934769 414.282562,155.638382 413.098755,154.192078 
	C410.072571,150.494873 407.127960,146.730881 403.832336,142.374359 
	C395.713226,135.746536 388.750641,127.504341 377.981323,123.661659 
	C377.981323,126.061386 377.981323,128.027710 377.302734,130.430038 
	C376.677612,136.877594 376.052490,143.325165 375.528076,148.734192 
	C372.897583,150.045792 370.917755,151.032974 368.351257,152.291489 
	C366.523468,154.196808 364.695679,156.102127 362.264282,158.300644 
	C359.319397,160.184769 356.374512,162.068909 352.522461,164.533432 
	C361.274658,167.123734 366.755798,171.816452 370.014221,179.892059 
	C369.756226,183.605728 369.498260,187.319382 369.091339,191.522751 
	C369.045258,191.687012 368.999176,191.851288 368.595947,192.208359 
	C368.355316,192.386673 368.250336,192.624847 367.950470,193.542923 
	C365.463135,196.365219 363.160431,199.381653 360.444946,201.963989 
	C356.433105,205.779099 352.127777,209.285568 347.220001,212.996399 
	C344.791992,214.343750 342.364014,215.691101 339.477936,217.050690 
	C339.477936,217.050690 339.022369,216.989517 338.725677,216.483810 
	C338.180176,216.315933 337.634674,216.148056 337.087097,215.922043 
	C337.087097,215.922043 337.034119,215.946045 336.851990,215.516434 
M289.023163,114.011078 
	C289.023163,114.011078 289.034576,114.067772 289.691284,113.760757 
	C293.155792,112.186058 296.620300,110.611366 300.887726,109.000450 
	C302.637299,108.607925 304.414276,108.309364 306.132019,107.807838 
	C318.606140,104.165794 331.140259,101.969620 344.348938,106.564705 
	C348.189941,110.376778 352.030975,114.188858 356.063660,118.823761 
	C356.431549,122.855064 356.799438,126.886360 357.030060,131.554916 
	C356.765533,132.357925 356.500977,133.160919 355.930328,134.648026 
	C354.534088,136.710373 353.466797,139.139603 351.667755,140.752670 
	C348.652679,143.456070 345.171173,145.639236 341.145111,148.083130 
	C335.415894,150.129654 329.686646,152.176178 323.235596,154.118271 
	C319.121704,156.164780 315.007812,158.211288 310.503479,160.261795 
	C310.248932,160.392731 310.110413,160.600891 309.958954,160.912582 
	C309.958954,160.912582 309.920624,161.038498 309.227295,161.114944 
	C305.137451,164.087326 301.047607,167.059723 296.376221,170.365112 
	C293.888641,172.916367 291.401031,175.467621 288.344269,178.349640 
	C283.055817,185.688599 277.690918,192.974396 272.528961,200.401276 
	C271.116974,202.432831 270.951080,204.707596 274.459229,204.805374 
	C279.430725,204.943893 284.410034,205.015961 289.378906,204.871887 
	C290.505280,204.839233 291.908600,204.065826 292.665558,203.186630 
	C299.827271,194.868362 306.876648,186.453430 314.573120,177.718704 
	C323.717865,173.493378 332.862610,169.268051 342.538666,164.897278 
	C342.715057,164.846283 342.891449,164.795303 343.500763,164.718414 
	C343.767426,164.569504 343.943970,164.348587 344.805267,163.971741 
	C353.227814,161.917557 360.142426,157.379761 366.584290,150.715485 
	C368.744019,146.506027 370.903748,142.296585 373.637817,137.666122 
	C373.461945,135.790665 373.286072,133.915207 373.790802,131.637878 
	C376.243530,125.132309 374.883820,118.978645 371.771545,112.310692 
	C370.121704,109.019073 368.982544,105.316788 366.727264,102.512009 
	C359.661346,93.724495 350.105255,89.241837 338.500732,87.222740 
	C332.646240,87.543480 326.791718,87.864227 320.103882,88.039955 
	C314.708710,89.089226 309.313507,90.138496 303.340424,91.071480 
	C302.880371,91.359093 302.420288,91.646706 301.223145,92.030518 
	C300.102264,92.349823 298.981354,92.669121 297.095978,92.991051 
	C292.419586,94.714371 287.743164,96.437691 282.560516,98.123192 
	C282.329102,98.357735 282.097656,98.592278 281.296936,98.952065 
	C280.842010,99.268547 280.387085,99.585030 279.372345,100.060310 
	C279.186157,100.114662 278.999939,100.169014 278.487946,100.215363 
	C278.270081,100.309845 278.149567,100.475243 277.578644,100.971832 
	C277.388428,101.040192 277.198181,101.108559 276.383636,101.259857 
	C275.330475,102.183075 274.277313,103.106300 273.111969,104.773872 
	C273.135223,105.524742 273.158478,106.275620 273.075897,107.666122 
	C273.111053,108.095428 273.146210,108.524727 273.082947,109.634399 
	C273.050537,110.091537 273.018097,110.548683 272.461945,111.649918 
	C271.674591,122.276596 271.279694,132.883209 272.988983,144.371307 
	C280.786743,136.827576 290.964661,132.382980 287.913147,119.387032 
	C287.890167,118.930939 287.867188,118.474846 288.018982,117.341225 
	C288.370728,116.240181 288.722504,115.139137 289.023163,114.011078 
M404.891022,102.442383 
	C404.692596,102.102036 404.412842,102.010620 403.381775,101.869736 
	C398.595856,99.883835 393.809967,97.897926 388.787964,95.354523 
	C388.210022,95.211189 387.632050,95.067848 387.007324,94.985855 
	C387.007324,94.985855 387.069305,94.940269 386.697296,94.282936 
	C383.486755,93.500847 380.276184,92.718765 376.659607,91.275894 
	C368.460541,89.760963 360.261444,88.246033 352.062378,86.731102 
	C352.095276,87.012619 352.128174,87.294128 352.161072,87.575645 
	C357.129761,91.432434 362.098480,95.289223 367.329224,99.753532 
	C370.468140,104.681442 374.198792,108.321938 380.371429,109.897682 
	C386.514313,111.465843 392.897644,114.111336 391.020172,122.995987 
	C389.689819,129.291428 394.695892,131.404007 399.215973,134.552094 
	C401.465485,136.759354 403.714966,138.966614 405.964447,141.173874 
	C406.583740,140.973419 407.203033,140.772980 407.822327,140.572525 
	C407.822327,133.387695 407.822327,126.202881 407.915100,118.185585 
	C406.971375,113.134071 406.027649,108.082565 405.094635,102.926682 
	C405.094635,102.926682 404.990265,102.915924 404.891022,102.442383 
M276.349792,145.297546 
	C271.903595,151.218506 267.457367,157.139450 262.415009,163.374298 
	C261.402893,164.677444 260.185059,165.869888 259.414124,167.302795 
	C255.975235,173.694580 252.714783,179.664993 244.945953,182.534149 
	C238.985062,184.735596 238.329605,195.642822 243.032516,200.313538 
	C246.490524,203.747864 250.486008,205.622894 255.611053,204.207581 
	C261.392059,202.611084 263.599976,198.392654 264.931976,193.065613 
	C265.534180,190.657135 266.608673,188.001312 268.312042,186.303696 
	C272.980560,181.650909 278.096191,177.446701 283.051758,173.056412 
	C283.051758,173.056412 283.058594,173.041672 283.706787,172.925720 
	C285.137512,171.969940 286.568207,171.014175 288.703156,169.916946 
	C294.473846,166.307587 300.244537,162.698242 306.722809,158.929993 
	C309.819672,157.315659 312.916504,155.701324 316.742096,153.934097 
	C322.862488,151.617538 328.982910,149.300964 335.861542,146.956329 
	C341.341797,146.444870 343.602722,143.618195 343.068573,137.998428 
	C342.638519,133.473587 342.981537,128.875259 342.981537,123.979019 
	C347.447174,124.582954 350.961304,125.058212 355.341919,125.650658 
	C354.406158,123.397667 353.702209,121.702797 352.946808,119.229134 
	C351.584930,117.492317 350.504547,114.620834 348.815765,114.201874 
	C337.417664,111.374176 326.537476,114.129585 315.184113,118.164284 
	C307.865173,122.361427 300.546204,126.558571 292.615570,130.957458 
	C287.391113,135.636078 282.166656,140.314697 276.349792,145.297546 
M390.055847,186.429367 
	C390.176453,187.482437 390.297089,188.535492 390.417725,189.588562 
	C390.940704,189.747375 391.463654,189.906204 391.986633,190.065018 
	C393.983917,185.247314 395.981201,180.429596 398.080109,175.366806 
	C395.064758,173.595627 392.458130,172.064529 390.088928,170.672882 
	C390.088928,175.845612 390.088928,180.740448 390.055847,186.429367 
z"/>
<path fill="#113355" opacity="1.000000" stroke="none" 
	d="
M283.034821,173.064911 
	C278.096191,177.446701 272.980560,181.650909 268.312042,186.303696 
	C266.608673,188.001312 265.534180,190.657135 264.931976,193.065613 
	C263.599976,198.392654 261.392059,202.611084 255.611053,204.207581 
	C250.486008,205.622894 246.490524,203.747864 243.032516,200.313538 
	C238.329605,195.642822 238.985062,184.735596 244.945953,182.534149 
	C252.714783,179.664993 255.975235,173.694580 259.414124,167.302795 
	C260.185059,165.869888 261.402893,164.677444 262.854797,163.497467 
	C267.522369,167.920654 268.301666,163.249741 270.458801,161.030090 
	C272.631653,161.027908 274.370300,161.029236 276.114960,161.371033 
	C276.826630,165.553711 279.277710,162.695496 280.773712,163.265518 
	C278.345734,165.657059 276.059265,167.743484 273.235138,170.320526 
	C277.138794,171.413727 280.086823,172.239319 283.034821,173.064911 
z"/>
<path fill="#276A83" opacity="1.000000" stroke="none" 
	d="
M442.710297,192.144821 
	C442.730957,192.557571 442.751617,192.970322 442.335327,193.737595 
	C436.507599,194.148453 430.595276,195.792892 427.894348,188.570847 
	C427.464203,187.420700 425.130280,187.026199 423.737640,186.181519 
	C421.941528,185.092056 420.079865,184.055084 418.469147,182.725677 
	C413.022583,178.230423 407.733948,173.542999 402.262634,169.078964 
	C399.666504,166.960800 397.074402,167.202835 394.993317,170.061996 
	C391.534180,168.421326 388.075073,166.780640 384.246277,164.713226 
	C385.253754,162.847000 386.630951,161.407516 388.274139,159.811218 
	C389.391510,158.761887 390.242889,157.869385 391.443420,156.981903 
	C392.493652,156.970825 393.194641,156.954712 394.201202,157.004120 
	C396.259552,157.405380 398.012329,157.741135 399.835266,158.450226 
	C400.594055,164.338058 406.228546,163.785049 408.754425,167.045639 
	C409.062958,166.743134 409.371460,166.440628 409.679993,166.138138 
	C406.773804,162.129929 403.867615,158.121719 400.845337,153.755615 
	C400.155945,150.893158 399.582672,148.388641 399.274780,145.998535 
	C400.049042,146.385666 400.557953,146.658340 401.234497,147.220322 
	C405.907623,152.456039 410.413055,157.402466 414.986145,162.681824 
	C416.912750,166.460953 418.634125,169.991577 420.679321,173.323441 
	C422.027374,175.519608 424.014282,175.867813 426.056976,173.953690 
	C429.826019,176.576752 433.792511,178.965820 437.286591,181.914688 
	C439.238953,183.562393 440.406952,186.139496 441.905396,188.940338 
	C442.158386,190.436859 442.434326,191.290833 442.710297,192.144821 
M402.514618,152.520447 
	C402.514618,152.520447 402.507782,152.485428 402.514618,152.520447 
z"/>
<path fill="#134562" opacity="1.000000" stroke="none" 
	d="
M313.958405,178.066330 
	C306.876648,186.453430 299.827271,194.868362 292.665558,203.186630 
	C291.908600,204.065826 290.505280,204.839233 289.378906,204.871887 
	C284.410034,205.015961 279.430725,204.943893 274.459229,204.805374 
	C270.951080,204.707596 271.116974,202.432831 272.528961,200.401276 
	C277.690918,192.974396 283.055817,185.688599 288.690369,178.547318 
	C289.791931,182.911667 292.774719,185.434341 295.916107,182.515167 
	C301.409973,177.409897 307.639069,178.208725 313.958405,178.066330 
z"/>
<path fill="#16566D" opacity="1.000000" stroke="none" 
	d="
M343.978424,105.991608 
	C331.140259,101.969620 318.606140,104.165794 306.132019,107.807838 
	C304.414276,108.309364 302.637299,108.607925 300.062988,109.014374 
	C294.914215,108.839653 291.227020,109.940498 289.034576,114.067772 
	C289.034576,114.067772 289.023163,114.011078 288.810974,114.181778 
	C288.073242,114.889893 287.547729,115.427315 286.732117,115.906982 
	C284.801514,114.742027 281.685181,113.426361 281.806396,112.568016 
	C282.127716,110.293396 283.848755,108.216499 285.381042,105.984344 
	C290.838257,103.974022 295.927307,102.040283 301.411499,100.036331 
	C306.218964,98.902496 310.631317,97.838875 315.448975,96.753479 
	C319.565918,96.168999 323.277527,95.606300 327.433899,95.069382 
	C337.378448,95.139175 346.527588,96.371231 353.882996,103.081482 
	C350.416626,104.210480 347.197510,105.101044 343.978424,105.991608 
z"/>
<path fill="#113355" opacity="1.000000" stroke="none" 
	d="
M356.480865,225.463150 
	C352.189056,232.796448 339.569916,236.499466 332.037720,232.433884 
	C320.099304,225.989990 309.248932,218.112671 300.736450,207.283997 
	C303.646484,205.985855 306.297394,205.021088 309.189972,204.274063 
	C311.162781,205.999878 312.893921,207.507950 314.837402,209.293091 
	C319.334747,213.084946 323.619720,216.599747 328.152100,220.352570 
	C330.949432,221.936203 333.499390,223.281830 336.404175,224.804092 
	C343.256134,228.280838 349.866028,226.972977 356.480865,225.463150 
z"/>
<path fill="#4FA5A4" opacity="1.000000" stroke="none" 
	d="
M354.130310,102.843048 
	C346.527588,96.371231 337.378448,95.139175 327.380341,94.715057 
	C325.855164,89.558182 328.348816,88.067001 332.607880,88.111481 
	C334.736206,88.133705 336.866272,87.988190 338.995544,87.918541 
	C350.105255,89.241837 359.661346,93.724495 366.727264,102.512009 
	C368.982544,105.316788 370.121704,109.019073 371.846497,112.992088 
	C371.240448,117.481956 368.607544,118.769882 364.996582,118.625931 
	C364.234985,116.869431 363.590179,115.432648 362.829468,113.671242 
	C359.852478,109.845436 356.991394,106.344246 354.130310,102.843048 
z"/>
<path fill="#225D7B" opacity="1.000000" stroke="none" 
	d="
M395.148132,170.362274 
	C397.074402,167.202835 399.666504,166.960800 402.262634,169.078964 
	C407.733948,173.542999 413.022583,178.230423 418.469147,182.725677 
	C420.079865,184.055084 421.941528,185.092056 423.737640,186.181519 
	C425.130280,187.026199 427.464203,187.420700 427.894348,188.570847 
	C430.595276,195.792892 436.507599,194.148453 442.283630,194.043884 
	C439.834656,202.977036 432.626892,207.606461 425.793793,203.701462 
	C422.153168,201.620911 417.892792,197.123245 417.610535,193.433624 
	C417.102509,186.791855 412.601959,184.028763 408.840820,180.559082 
	C404.758850,176.793411 399.850800,173.923233 395.148132,170.362274 
z"/>
<path fill="#14415F" opacity="1.000000" stroke="none" 
	d="
M276.108948,161.030563 
	C274.370300,161.029236 272.631653,161.027908 270.650696,160.753464 
	C273.597107,156.622421 276.785828,152.764496 280.155365,148.632950 
	C284.532257,145.185776 288.728363,142.012238 293.243195,138.904678 
	C295.347046,138.985733 297.132111,139.000809 298.708069,139.270782 
	C296.502045,141.006882 294.446686,142.416214 292.520386,143.984100 
	C288.444824,147.301376 287.723236,151.598206 290.355835,156.800797 
	C292.207489,156.285889 294.091461,155.761978 296.059326,155.520157 
	C299.433868,156.897797 302.724518,157.993347 306.015198,159.088898 
	C300.244537,162.698242 294.473846,166.307587 288.184021,169.719849 
	C286.375854,168.789139 285.086792,168.055527 283.797729,167.321930 
	C283.551331,169.228516 283.304962,171.135086 283.058594,173.041672 
	C283.058594,173.041672 283.051758,173.056412 283.043274,173.060669 
	C280.086823,172.239319 277.138794,171.413727 273.235138,170.320526 
	C276.059265,167.743484 278.345734,165.657059 280.786713,163.259430 
	C280.941223,162.948227 280.957062,162.958847 281.130188,162.842422 
	C281.526062,162.560074 281.742157,162.385895 282.217102,161.951385 
	C282.318665,159.823502 282.154694,157.947693 281.988129,155.867310 
	C278.244904,153.867172 278.674835,157.046402 277.898987,159.209366 
	C277.203430,159.979813 276.656189,160.505188 276.108948,161.030563 
z"/>
<path fill="#2B6F8F" opacity="1.000000" stroke="none" 
	d="
M388.008118,159.968033 
	C386.630951,161.407516 385.253754,162.847000 383.921570,164.564270 
	C384.596283,167.093018 385.025085,169.424850 385.892853,171.579941 
	C388.663574,178.460785 388.130615,185.447571 386.695496,192.963379 
	C386.501190,193.435165 386.356812,193.734238 386.356812,193.734238 
	C385.941223,194.939484 385.525665,196.144745 384.827667,197.854477 
	C384.366028,198.555908 384.216492,198.773315 384.096649,199.011154 
	C384.096649,199.011154 384.101624,199.117142 383.817963,199.304016 
	C383.039062,200.323074 382.543854,201.155258 382.048615,201.987457 
	C382.048615,201.987457 382.055450,202.052002 381.675262,202.105133 
	C378.843018,201.772186 376.390930,201.386093 374.050476,200.667816 
	C375.101013,198.216019 376.039948,196.096390 377.148010,193.632904 
	C379.332947,187.168396 380.308441,181.054382 377.133240,174.606400 
	C375.311890,171.244827 373.558044,168.243164 371.987488,164.930359 
	C374.786743,162.076935 377.402679,159.534653 380.302124,157.156921 
	C383.059814,158.203659 385.533966,159.085846 388.008118,159.968033 
z"/>
<path fill="#19546D" opacity="1.000000" stroke="none" 
	d="
M314.265747,177.892517 
	C307.639069,178.208725 301.409973,177.409897 295.916107,182.515167 
	C292.774719,185.434341 289.791931,182.911667 288.974945,178.381927 
	C291.401031,175.467621 293.888641,172.916367 296.771545,170.535736 
	C298.995758,175.170334 302.201538,175.625137 305.924042,173.373367 
	C308.437683,171.852829 310.652313,169.838028 313.338013,167.922302 
	C318.118622,165.539108 322.561859,163.277924 327.383514,160.972443 
	C329.509674,160.595596 331.257477,160.263031 333.204895,160.213501 
	C336.272156,162.011917 339.139771,163.527313 342.007355,165.042694 
	C332.862610,169.268051 323.717865,173.493378 314.265747,177.892517 
z"/>
<path fill="#23587B" opacity="1.000000" stroke="none" 
	d="
M398.866028,133.949860 
	C394.695892,131.404007 389.689819,129.291428 391.020172,122.995987 
	C392.897644,114.111336 386.514313,111.465843 380.371429,109.897682 
	C374.198792,108.321938 370.468140,104.681442 367.338989,99.216881 
	C367.586548,98.407219 367.824310,98.134201 368.435669,97.951157 
	C373.543823,99.334770 378.278442,100.628418 383.319580,102.115448 
	C385.303040,102.986351 386.954926,103.735794 388.661346,104.328232 
	C394.318329,106.292259 399.377899,108.748764 399.006378,116.447098 
	C399.086761,118.888802 399.206085,120.901100 399.264038,123.373772 
	C399.090454,127.206047 398.978241,130.577957 398.866028,133.949860 
z"/>
<path fill="#307389" opacity="1.000000" stroke="none" 
	d="
M388.274139,159.811218 
	C385.533966,159.085846 383.059814,158.203659 380.048340,157.155060 
	C379.341919,156.987305 379.172882,156.985992 378.878357,156.826996 
	C378.159729,156.445694 377.566589,156.222092 376.626770,155.905151 
	C373.832672,154.547943 371.385315,153.284058 368.937927,152.020172 
	C370.917755,151.032974 372.897583,150.045792 375.528076,148.734192 
	C376.052490,143.325165 376.677612,136.877594 377.992188,130.277222 
	C385.457550,135.377640 392.233490,140.630875 399.009399,145.884109 
	C399.582672,148.388641 400.155945,150.893158 400.516449,153.918625 
	C400.124146,155.652008 399.944641,156.864441 399.765137,158.076889 
	C398.012329,157.741135 396.259552,157.405380 394.251312,156.632507 
	C393.986908,155.444763 393.977905,154.694138 394.127899,153.742371 
	C394.171143,152.340927 394.055389,151.140625 393.965790,149.572433 
	C390.506836,145.616928 387.021790,142.029327 383.633972,138.541840 
	C382.475525,139.549805 382.271332,139.638992 382.256134,139.753296 
	C380.740356,151.168686 381.317627,152.290543 391.094238,156.976868 
	C390.242889,157.869385 389.391510,158.761887 388.274139,159.811218 
z"/>
<path fill="#1C566B" opacity="1.000000" stroke="none" 
	d="
M335.103302,146.984390 
	C328.982910,149.300964 322.862488,151.617538 316.234314,153.709839 
	C314.181396,152.296082 312.636292,151.106583 311.349030,149.686310 
	C315.837860,148.853821 318.350861,147.002213 317.942688,142.137115 
	C317.594391,137.985794 317.870728,133.782074 317.870728,129.450211 
	C308.217316,131.865128 304.974884,134.017502 305.427734,139.930634 
	C303.354736,139.598358 301.646301,139.325623 299.960876,139.042969 
	C299.983856,139.033035 299.951080,139.068237 299.929413,138.685852 
	C299.612885,136.564117 299.317993,134.824768 299.266052,132.848770 
	C305.668793,129.281067 311.828583,125.950012 318.392334,122.517838 
	C320.164551,122.217514 321.532806,122.018326 323.093628,122.105743 
	C324.870422,123.275200 326.454590,124.158035 327.776520,125.306320 
	C326.352844,126.737129 324.270721,127.841408 324.188629,129.078384 
	C323.823242,134.585419 324.030090,140.130402 324.030090,146.198181 
	C328.119568,146.198181 331.548706,146.198181 335.009705,146.394653 
	C335.041534,146.591125 335.103302,146.984390 335.103302,146.984390 
z"/>
<path fill="#184B6E" opacity="1.000000" stroke="none" 
	d="
M376.978882,193.976776 
	C376.039948,196.096390 375.101013,198.216019 373.797760,200.873138 
	C372.047943,203.839935 370.662445,206.269241 369.276947,208.698547 
	C371.835052,208.824585 374.393127,208.950623 376.951233,209.076660 
	C375.166260,210.969620 373.381317,212.862579 371.042786,214.945129 
	C370.150696,215.137253 369.812195,215.139786 369.113037,214.996674 
	C365.462677,214.981522 361.938385,214.408173 358.938293,215.407837 
	C354.465454,216.898239 350.960693,216.676697 347.947418,212.923447 
	C352.127777,209.285568 356.433105,205.779099 360.444946,201.963989 
	C363.160431,199.381653 365.463135,196.365219 368.241943,193.092804 
	C368.697662,192.449905 368.837524,192.240875 368.953064,192.015564 
	C368.999176,191.851288 369.045258,191.687012 369.517822,191.319534 
	C372.289185,192.069809 374.634033,193.023285 376.978882,193.976776 
z"/>
<path fill="#1F6072" opacity="1.000000" stroke="none" 
	d="
M335.482422,146.970367 
	C335.103302,146.984390 335.041534,146.591125 335.335144,146.096298 
	C335.628754,138.535339 335.628754,131.469223 335.628754,124.057838 
	C332.864075,124.415909 330.451447,124.728386 328.038788,125.040863 
	C326.454590,124.158035 324.870422,123.275200 323.137207,122.140717 
	C322.988190,121.889069 322.967163,121.996681 323.111206,121.858383 
	C323.448914,121.539108 323.644684,121.360435 324.238251,121.062332 
	C334.018768,118.502998 343.478271,118.335976 352.998230,120.007935 
	C353.702209,121.702797 354.406158,123.397667 355.341919,125.650658 
	C350.961304,125.058212 347.447174,124.582954 342.981537,123.979019 
	C342.981537,128.875259 342.638519,133.473587 343.068573,137.998428 
	C343.602722,143.618195 341.341797,146.444870 335.482422,146.970367 
z"/>
<path fill="#1C5C72" opacity="1.000000" stroke="none" 
	d="
M285.012848,106.060936 
	C283.848755,108.216499 282.127716,110.293396 281.806396,112.568016 
	C281.685181,113.426361 284.801514,114.742027 286.733917,116.102127 
	C287.298645,116.909607 287.571411,117.464180 287.844177,118.018753 
	C287.867188,118.474846 287.890167,118.930939 287.760559,120.098083 
	C286.748169,125.680489 287.123718,131.158203 282.109283,133.556305 
	C279.000854,125.873344 275.993286,118.439583 272.985687,111.005821 
	C273.018097,110.548683 273.050537,110.091537 273.184937,109.105026 
	C273.251862,108.059258 273.216797,107.542877 273.181763,107.026489 
	C273.158478,106.275620 273.135223,105.524742 273.483093,104.340546 
	C274.905457,102.997124 275.956696,102.087029 277.007935,101.176941 
	C277.198181,101.108559 277.388428,101.040192 277.979065,100.785995 
	C278.543213,100.496475 278.687958,100.370880 278.813751,100.223366 
	C278.999939,100.169014 279.186157,100.114662 279.903870,99.864037 
	C280.912323,99.387451 281.389282,99.107140 281.866241,98.826820 
	C282.097656,98.592278 282.329102,98.357735 282.808411,98.533203 
	C283.708466,101.315788 284.360657,103.688362 285.012848,106.060936 
z"/>
<path fill="#1F6072" opacity="1.000000" stroke="none" 
	d="
M342.273010,164.969986 
	C339.139771,163.527313 336.272156,162.011917 333.510193,160.048813 
	C336.411194,158.459839 339.206604,157.318588 342.364563,156.082245 
	C348.456818,152.549133 354.186523,149.111084 360.063293,145.940308 
	C362.140564,147.839264 364.070770,149.470947 366.000977,151.102646 
	C360.142426,157.379761 353.227814,161.917557 344.250336,164.116852 
	C343.478577,164.412857 343.269379,164.573639 343.067810,164.744339 
	C342.891449,164.795303 342.715057,164.846283 342.273010,164.969986 
z"/>
<path fill="#439195" opacity="1.000000" stroke="none" 
	d="
M359.916199,145.673035 
	C354.186523,149.111084 348.456818,152.549133 342.230133,155.787308 
	C339.841278,153.032715 340.061890,150.520782 341.885956,148.041321 
	C345.171173,145.639236 348.652679,143.456070 351.667755,140.752670 
	C353.466797,139.139603 354.534088,136.710373 356.459564,134.361053 
	C360.085938,134.543137 363.383057,134.724167 363.689026,139.128418 
	C362.279175,141.472549 361.097687,143.572784 359.916199,145.673035 
z"/>
<path fill="#54AFB0" opacity="1.000000" stroke="none" 
	d="
M399.045349,116.017693 
	C399.377899,108.748764 394.318329,106.292259 388.661346,104.328232 
	C386.954926,103.735794 385.303040,102.986351 383.325623,101.710999 
	C382.975647,98.139946 383.448730,95.509064 387.069305,94.940269 
	C387.069305,94.940269 387.007324,94.985855 387.137146,95.127213 
	C387.852692,95.483055 388.438354,95.697540 389.024048,95.912025 
	C393.809967,97.897926 398.595856,99.883835 403.861481,102.157410 
	C404.538635,102.628082 404.755005,102.785027 404.990265,102.915924 
	C404.990265,102.915924 405.094635,102.926682 405.071442,103.433167 
	C405.015472,105.918007 404.919281,107.897774 404.963165,109.874428 
	C405.053528,113.944046 403.181610,116.053970 399.045349,116.017693 
z"/>
<path fill="#1A5266" opacity="1.000000" stroke="none" 
	d="
M272.723816,111.327866 
	C275.993286,118.439583 279.000854,125.873344 282.109283,133.556305 
	C287.123718,131.158203 286.748169,125.680489 287.722778,120.439072 
	C290.964661,132.382980 280.786743,136.827576 272.988983,144.371307 
	C271.279694,132.883209 271.674591,122.276596 272.723816,111.327866 
z"/>
<path fill="#113355" opacity="1.000000" stroke="none" 
	d="
M371.804199,165.241501 
	C373.558044,168.243164 375.311890,171.244827 376.814148,174.752686 
	C374.372589,176.511826 372.182678,177.764755 369.992767,179.017700 
	C366.755798,171.816452 361.274658,167.123734 352.522461,164.533432 
	C356.374512,162.068909 359.319397,160.184769 362.759125,158.433472 
	C366.104034,160.791382 368.954132,163.016434 371.804199,165.241501 
z"/>
<path fill="#439195" opacity="1.000000" stroke="none" 
	d="
M352.972534,119.618530 
	C343.478271,118.335976 334.018768,118.502998 324.056763,121.153870 
	C323.247803,121.527298 323.076996,121.737152 322.967163,121.996681 
	C322.967163,121.996681 322.988190,121.889069 322.944611,121.854095 
	C321.532806,122.018326 320.164551,122.217514 318.230194,122.196640 
	C317.073486,120.727715 316.482910,119.478867 315.892303,118.230026 
	C326.537476,114.129585 337.417664,111.374176 348.815765,114.201874 
	C350.504547,114.620834 351.584930,117.492317 352.972534,119.618530 
z"/>
<path fill="#194A64" opacity="1.000000" stroke="none" 
	d="
M299.937866,139.052887 
	C301.646301,139.325623 303.354736,139.598358 305.486755,140.379639 
	C305.910370,144.047958 305.910370,147.207733 305.910370,150.571030 
	C308.248383,150.275909 309.669800,150.096481 311.091187,149.917068 
	C312.636292,151.106583 314.181396,152.296082 315.869934,153.786285 
	C312.916504,155.701324 309.819672,157.315659 306.369019,159.009430 
	C302.724518,157.993347 299.433868,156.897797 296.395782,155.336395 
	C297.789154,152.909439 299.577728,151.054459 299.920380,148.962585 
	C300.447540,145.744751 299.982147,142.364319 299.937866,139.052887 
z"/>
<path fill="#4FA5A4" opacity="1.000000" stroke="none" 
	d="
M399.274780,145.998535 
	C392.233490,140.630875 385.457550,135.377640 378.331482,130.059204 
	C377.981323,128.027710 377.981323,126.061386 377.981323,123.661659 
	C388.750641,127.504341 395.713226,135.746536 403.884613,142.995941 
	C402.980194,144.722015 402.023499,145.826523 401.066833,146.931030 
	C400.557953,146.658340 400.049042,146.385666 399.274780,145.998535 
z"/>
<path fill="#14415F" opacity="1.000000" stroke="none" 
	d="
M308.948273,204.056320 
	C306.297394,205.021088 303.646484,205.985855 300.627380,206.979858 
	C296.525238,203.873230 296.944489,200.692978 299.943726,197.254486 
	C302.413391,194.423080 304.644073,191.383224 307.354645,187.963989 
	C309.722656,191.469269 311.713623,194.416397 313.543640,197.787415 
	C310.871643,199.376038 308.254089,200.459930 308.948273,204.056320 
z"/>
<path fill="#439195" opacity="1.000000" stroke="none" 
	d="
M369.473694,215.142319 
	C369.812195,215.139786 370.150696,215.137253 370.731934,215.053360 
	C367.503357,217.887604 364.032013,220.803223 359.941040,223.874390 
	C358.814087,224.558884 358.306793,225.087860 357.799469,225.616821 
	C357.579559,225.589371 357.359650,225.561935 356.810303,225.498810 
	C349.866028,226.972977 343.256134,228.280838 336.714691,224.531219 
	C338.179291,222.296417 339.688171,220.511139 341.567932,218.829544 
	C351.805695,222.670929 360.820892,220.222809 369.473694,215.142319 
z"/>
<path fill="#296A7B" opacity="1.000000" stroke="none" 
	d="
M285.381042,105.984344 
	C284.360657,103.688362 283.708466,101.315788 283.061523,98.552116 
	C287.743164,96.437691 292.419586,94.714371 297.680267,93.163124 
	C299.181824,95.592308 300.099091,97.849419 301.016357,100.106537 
	C295.927307,102.040283 290.838257,103.974022 285.381042,105.984344 
z"/>
<path fill="#14415F" opacity="1.000000" stroke="none" 
	d="
M370.003479,179.454865 
	C372.182678,177.764755 374.372589,176.511826 376.881622,175.112610 
	C380.308441,181.054382 379.332947,187.168396 377.148010,193.632904 
	C374.634033,193.023285 372.289185,192.069809 369.592285,191.074677 
	C369.498260,187.319382 369.756226,183.605728 370.003479,179.454865 
z"/>
<path fill="#378088" opacity="1.000000" stroke="none" 
	d="
M341.515533,148.062225 
	C340.061890,150.520782 339.841278,153.032715 341.867554,155.882385 
	C339.206604,157.318588 336.411194,158.459839 333.310547,159.765778 
	C331.257477,160.263031 329.509674,160.595596 327.171387,160.705078 
	C325.706390,158.395554 324.831909,156.309128 323.957428,154.222702 
	C329.686646,152.176178 335.415894,150.129654 341.515533,148.062225 
z"/>
<path fill="#378088" opacity="1.000000" stroke="none" 
	d="
M363.917389,138.884506 
	C363.383057,134.724167 360.085938,134.543137 356.612610,134.019012 
	C356.500977,133.160919 356.765533,132.357925 357.316650,131.023468 
	C359.020233,126.528717 361.952057,125.312698 365.986084,126.271904 
	C368.424469,128.427505 370.767334,130.233627 373.110229,132.039749 
	C373.286072,133.915207 373.461945,135.790665 373.083649,137.854340 
	C372.350952,138.030243 372.172455,138.017914 371.983032,137.989929 
	C371.972107,137.974274 372.005829,137.993927 371.748840,138.223694 
	C368.967041,138.597153 366.442230,138.740829 363.917389,138.884506 
z"/>
<path fill="#439195" opacity="1.000000" stroke="none" 
	d="
M399.041016,134.250977 
	C398.978241,130.577957 399.090454,127.206047 399.645081,123.365570 
	C402.665802,121.604019 405.244049,120.311035 407.822327,119.018051 
	C407.822327,126.202881 407.822327,133.387695 407.822327,140.572525 
	C407.203033,140.772980 406.583740,140.973419 405.964447,141.173874 
	C403.714966,138.966614 401.465485,136.759354 399.041016,134.250977 
z"/>
<path fill="#307389" opacity="1.000000" stroke="none" 
	d="
M315.538208,118.197151 
	C316.482910,119.478867 317.073486,120.727715 317.826233,122.297760 
	C311.828583,125.950012 305.668793,129.281067 298.935669,132.889496 
	C297.924744,133.244019 297.487091,133.321152 296.738953,133.166626 
	C295.361389,132.208572 294.294312,131.482147 293.227264,130.755707 
	C300.546204,126.558571 307.865173,122.361427 315.538208,118.197151 
z"/>
<path fill="#134562" opacity="1.000000" stroke="none" 
	d="
M369.113037,214.996674 
	C360.820892,220.222809 351.805695,222.670929 341.422974,218.609894 
	C340.583405,217.870514 340.259705,217.454483 339.936005,217.038452 
	C342.364014,215.691101 344.791992,214.343750 347.583710,212.959930 
	C350.960693,216.676697 354.465454,216.898239 358.938293,215.407837 
	C361.938385,214.408173 365.462677,214.981522 369.113037,214.996674 
z"/>
<path fill="#378088" opacity="1.000000" stroke="none" 
	d="
M301.411499,100.036324 
	C300.099091,97.849419 299.181824,95.592308 298.062500,93.161804 
	C298.981354,92.669121 300.102264,92.349823 301.843750,91.908257 
	C302.949005,91.586594 303.433685,91.387192 303.918335,91.187782 
	C309.313507,90.138496 314.708710,89.089226 320.245453,88.300903 
	C318.006683,90.909828 311.129608,90.332367 315.043640,96.775253 
	C310.631317,97.838875 306.218964,98.902496 301.411499,100.036324 
z"/>
<path fill="#1F6072" opacity="1.000000" stroke="none" 
	d="
M313.000671,168.044296 
	C310.652313,169.838028 308.437683,171.852829 305.924042,173.373367 
	C302.201538,175.625137 298.995758,175.170334 297.062317,170.369232 
	C301.047607,167.059723 305.137451,164.087326 309.659119,161.416458 
	C311.060852,163.826752 312.030762,165.935516 313.000671,168.044296 
z"/>
<path fill="#2C7380" opacity="1.000000" stroke="none" 
	d="
M313.338013,167.922302 
	C312.030762,165.935516 311.060852,163.826752 310.005798,161.378235 
	C309.920624,161.038498 309.958954,160.912582 310.171631,160.815918 
	C310.571106,160.584183 310.740997,160.430374 310.893951,160.257812 
	C315.007812,158.211288 319.121704,156.164780 323.596497,154.170486 
	C324.831909,156.309128 325.706390,158.395554 326.792999,160.749359 
	C322.561859,163.277924 318.118622,165.539108 313.338013,167.922302 
z"/>
<path fill="#1F6072" opacity="1.000000" stroke="none" 
	d="
M292.921417,130.856583 
	C294.294312,131.482147 295.361389,132.208572 296.539124,133.382874 
	C295.408020,135.500061 294.166229,137.169388 292.924438,138.838699 
	C288.728363,142.012238 284.532257,145.185776 279.912109,148.448639 
	C278.639435,147.356400 277.790833,146.174866 276.942200,144.993317 
	C282.166656,140.314697 287.391113,135.636078 292.921417,130.856583 
z"/>
<path fill="#439195" opacity="1.000000" stroke="none" 
	d="
M373.450500,131.838806 
	C370.767334,130.233627 368.424469,128.427505 365.983002,125.881744 
	C365.627411,123.076622 365.370392,121.011139 365.113373,118.945656 
	C368.607544,118.769882 371.240448,117.481956 371.994080,113.316498 
	C374.883820,118.978645 376.243530,125.132309 373.450500,131.838806 
z"/>
<path fill="#194A64" opacity="1.000000" stroke="none" 
	d="
M276.645996,145.145432 
	C277.790833,146.174866 278.639435,147.356400 279.731323,148.722260 
	C276.785828,152.764496 273.597107,156.622421 270.216492,160.756973 
	C268.301666,163.249741 267.522369,167.920654 263.152893,163.340515 
	C267.457367,157.139450 271.903595,151.218506 276.645996,145.145432 
z"/>
<path fill="#296A7B" opacity="1.000000" stroke="none" 
	d="
M327.904663,220.114532 
	C323.619720,216.599747 319.334747,213.084946 315.215118,209.158325 
	C317.926239,208.125839 320.472076,207.505203 323.017883,206.884552 
	C326.919037,209.371689 330.820221,211.858810 334.500763,214.683746 
	C330.758148,214.970612 328.967743,217.087357 327.904663,220.114532 
z"/>
<path fill="#1F6072" opacity="1.000000" stroke="none" 
	d="
M353.882996,103.081482 
	C356.991394,106.344246 359.852478,109.845436 362.503052,113.713066 
	C360.152374,115.386650 358.012177,116.693787 355.872009,118.000931 
	C352.030975,114.188858 348.189941,110.376778 344.163696,106.278152 
	C347.197510,105.101044 350.416626,104.210480 353.882996,103.081482 
z"/>
<path fill="#439195" opacity="1.000000" stroke="none" 
	d="
M368.062103,97.861191 
	C367.824310,98.134201 367.586548,98.407219 367.207977,98.913116 
	C362.098480,95.289223 357.129761,91.432434 352.161072,87.575645 
	C352.128174,87.294128 352.095276,87.012619 352.062378,86.731102 
	C360.261444,88.246033 368.460541,89.760963 376.492157,91.692780 
	C372.841217,92.979156 369.032532,93.381477 368.062103,97.861191 
z"/>
<path fill="#276A83" opacity="1.000000" stroke="none" 
	d="
M371.987488,164.930359 
	C368.954132,163.016434 366.104034,160.791382 363.060913,158.286865 
	C364.695679,156.102127 366.523468,154.196808 368.644592,152.155823 
	C371.385315,153.284058 373.832672,154.547943 376.875519,156.039917 
	C377.981934,156.506912 378.492920,156.745804 379.003876,156.984680 
	C379.172882,156.985992 379.341919,156.987305 379.764801,156.990479 
	C377.402679,159.534653 374.786743,162.076935 371.987488,164.930359 
z"/>
<path fill="#4FA5A4" opacity="1.000000" stroke="none" 
	d="
M368.435669,97.951157 
	C369.032532,93.381477 372.841217,92.979156 376.695190,92.023170 
	C380.276184,92.718765 383.486755,93.500847 386.883301,94.611603 
	C383.448730,95.509064 382.975647,98.139946 383.019073,101.517624 
	C378.278442,100.628418 373.543823,99.334770 368.435669,97.951157 
z"/>
<path fill="#439195" opacity="1.000000" stroke="none" 
	d="
M315.448975,96.753479 
	C311.129608,90.332367 318.006683,90.909828 320.662109,88.373413 
	C326.791718,87.864227 332.646240,87.543480 338.748138,87.570641 
	C336.866272,87.988190 334.736206,88.133705 332.607880,88.111481 
	C328.348816,88.067001 325.855164,89.558182 326.935608,94.689278 
	C323.277527,95.606300 319.565918,96.168999 315.448975,96.753479 
z"/>
<path fill="#2C7380" opacity="1.000000" stroke="none" 
	d="
M355.967834,118.412346 
	C358.012177,116.693787 360.152374,115.386650 362.618958,114.037689 
	C363.590179,115.432648 364.234985,116.869431 364.996582,118.625931 
	C365.370392,121.011139 365.627411,123.076622 365.887512,125.532272 
	C361.952057,125.312698 359.020233,126.528717 357.385315,130.704849 
	C356.799438,126.886360 356.431549,122.855064 355.967834,118.412346 
z"/>
<path fill="#439195" opacity="1.000000" stroke="none" 
	d="
M401.234497,147.220306 
	C402.023499,145.826523 402.980194,144.722015 404.043823,143.305557 
	C407.127960,146.730881 410.072571,150.494873 413.098755,154.192078 
	C414.282562,155.638382 415.649567,156.934769 416.787628,158.905350 
	C416.067566,160.457138 415.493011,161.403015 414.918488,162.348892 
	C410.413055,157.402466 405.907623,152.456039 401.234497,147.220306 
z"/>
<path fill="#296A7B" opacity="1.000000" stroke="none" 
	d="
M390.072388,186.032318 
	C390.088928,180.740448 390.088928,175.845612 390.088928,170.672882 
	C392.458130,172.064529 395.064758,173.595627 398.080109,175.366806 
	C395.981201,180.429596 393.983917,185.247314 391.986633,190.065018 
	C391.463654,189.906204 390.940704,189.747375 390.417725,189.588562 
	C390.297089,188.535492 390.176453,187.482437 390.072388,186.032318 
z"/>
<path fill="#2C7380" opacity="1.000000" stroke="none" 
	d="
M363.689026,139.128418 
	C366.442230,138.740829 368.967041,138.597153 371.745941,138.226730 
	C372.000000,138.000000 371.993988,138.005600 371.993988,138.005600 
	C372.172455,138.017914 372.350952,138.030243 372.796478,138.064850 
	C370.903748,142.296585 368.744019,146.506027 366.292633,150.909058 
	C364.070770,149.470947 362.140564,147.839264 360.063293,145.940292 
	C361.097687,143.572784 362.279175,141.472549 363.689026,139.128418 
z"/>
<path fill="#378088" opacity="1.000000" stroke="none" 
	d="
M414.986145,162.681824 
	C415.493011,161.403015 416.067566,160.457138 416.847290,159.260834 
	C420.022675,163.743713 422.992920,168.477005 426.010071,173.582001 
	C424.014282,175.867813 422.027374,175.519608 420.679321,173.323441 
	C418.634125,169.991577 416.912750,166.460953 414.986145,162.681824 
z"/>
<path fill="#1A5266" opacity="1.000000" stroke="none" 
	d="
M322.866821,206.597137 
	C320.472076,207.505203 317.926239,208.125839 315.002747,208.881256 
	C312.893921,207.507950 311.162781,205.999878 309.189972,204.274063 
	C308.254089,200.459930 310.871643,199.376038 313.697601,198.090485 
	C316.913635,200.749680 319.814728,203.529709 322.866821,206.597137 
z"/>
<path fill="#225D7B" opacity="1.000000" stroke="none" 
	d="
M377.253815,208.910339 
	C374.393127,208.950623 371.835052,208.824585 369.276947,208.698547 
	C370.662445,206.269241 372.047943,203.839935 373.686157,201.205322 
	C376.390930,201.386093 378.843018,201.772186 381.642914,202.102554 
	C380.512634,204.279236 379.034515,206.511627 377.253815,208.910339 
z"/>
<path fill="#378088" opacity="1.000000" stroke="none" 
	d="
M328.152100,220.352570 
	C328.967743,217.087357 330.758148,214.970612 334.664368,214.985168 
	C335.213470,214.986435 335.378387,215.024063 335.938354,215.279419 
	C336.541595,215.686417 336.775177,215.836060 337.034119,215.946045 
	C337.034119,215.946045 337.087097,215.922043 337.305298,216.113403 
	C338.023102,216.533020 338.522736,216.761276 339.022369,216.989517 
	C339.022369,216.989517 339.477936,217.050690 339.706970,217.044571 
	C340.259705,217.454483 340.583405,217.870514 341.052063,218.506195 
	C339.688171,220.511139 338.179291,222.296417 336.359863,224.354584 
	C333.499390,223.281830 330.949432,221.936203 328.152100,220.352570 
z"/>
<path fill="#4FA5A4" opacity="1.000000" stroke="none" 
	d="
M407.868713,118.601822 
	C405.244049,120.311035 402.665802,121.604019 399.706482,122.905205 
	C399.206085,120.901100 399.086761,118.888802 399.006378,116.447098 
	C403.181610,116.053970 405.053528,113.944046 404.963165,109.874428 
	C404.919281,107.897774 405.015472,105.918007 405.066101,103.485352 
	C406.027649,108.082565 406.971375,113.134071 407.868713,118.601822 
z"/>
<path fill="#113355" opacity="1.000000" stroke="none" 
	d="
M283.382690,172.983704 
	C283.304962,171.135086 283.551331,169.228516 283.797729,167.321930 
	C285.086792,168.055527 286.375854,168.789139 287.831909,169.790558 
	C286.568207,171.014175 285.137512,171.969940 283.382690,172.983704 
z"/>
<path fill="#1A5266" opacity="1.000000" stroke="none" 
	d="
M289.362915,113.914261 
	C291.227020,109.940498 294.914215,108.839653 299.661530,109.032478 
	C296.620300,110.611366 293.155792,112.186058 289.362915,113.914261 
z"/>
<path fill="#1A5266" opacity="1.000000" stroke="none" 
	d="
M276.695801,101.218399 
	C275.956696,102.087029 274.905457,102.997124 273.539185,103.968369 
	C274.277313,103.106300 275.330475,102.183075 276.695801,101.218399 
z"/>
<path fill="#1A5266" opacity="1.000000" stroke="none" 
	d="
M287.931580,117.679993 
	C287.571411,117.464180 287.298645,116.909607 287.024048,116.159882 
	C287.547729,115.427315 288.073242,114.889893 288.836517,114.195282 
	C288.722504,115.139137 288.370728,116.240181 287.931580,117.679993 
z"/>
<path fill="#225D7B" opacity="1.000000" stroke="none" 
	d="
M442.805450,191.867584 
	C442.434326,191.290833 442.158386,190.436859 441.937988,189.311111 
	C442.295929,189.889679 442.598267,190.740005 442.805450,191.867584 
z"/>
<path fill="#225D7B" opacity="1.000000" stroke="none" 
	d="
M382.336029,201.869263 
	C382.543854,201.155258 383.039062,200.323074 383.765472,199.311646 
	C383.538910,200.005325 383.081177,200.878204 382.336029,201.869263 
z"/>
<path fill="#4FA5A4" opacity="1.000000" stroke="none" 
	d="
M388.906006,95.633270 
	C388.438354,95.697540 387.852692,95.483055 387.160553,95.096542 
	C387.632050,95.067848 388.210022,95.211189 388.906006,95.633270 
z"/>
<path fill="#113355" opacity="1.000000" stroke="none" 
	d="
M358.090637,225.641281 
	C358.306793,225.087860 358.814087,224.558884 359.620911,224.014923 
	C359.407562,224.555191 358.894653,225.110458 358.090637,225.641281 
z"/>
<path fill="#296A7B" opacity="1.000000" stroke="none" 
	d="
M338.874023,216.736664 
	C338.522736,216.761276 338.023102,216.533020 337.306335,216.142471 
	C337.634674,216.148056 338.180176,216.315933 338.874023,216.736664 
z"/>
<path fill="#1A5266" opacity="1.000000" stroke="none" 
	d="
M281.581604,98.889442 
	C281.389282,99.107140 280.912323,99.387451 280.183777,99.784637 
	C280.387085,99.585030 280.842010,99.268547 281.581604,98.889442 
z"/>
<path fill="#1A5266" opacity="1.000000" stroke="none" 
	d="
M273.128845,107.346306 
	C273.216797,107.542877 273.251862,108.059258 273.234131,108.764832 
	C273.146210,108.524727 273.111053,108.095428 273.128845,107.346306 
z"/>
<path fill="#296A7B" opacity="1.000000" stroke="none" 
	d="
M303.629395,91.129639 
	C303.433685,91.387192 302.949005,91.586594 302.212280,91.860153 
	C302.420288,91.646706 302.880371,91.359093 303.629395,91.129639 
z"/>
<path fill="#296A7B" opacity="1.000000" stroke="none" 
	d="
M336.943054,215.731232 
	C336.775177,215.836060 336.541595,215.686417 336.180634,215.354721 
	C336.375671,215.115738 336.650391,215.217117 336.943054,215.731232 
z"/>
<path fill="#4FA5A4" opacity="1.000000" stroke="none" 
	d="
M404.940643,102.679153 
	C404.755005,102.785027 404.538635,102.628082 404.196442,102.306610 
	C404.412842,102.010620 404.692596,102.102036 404.940643,102.679153 
z"/>
<path fill="#225D7B" opacity="1.000000" stroke="none" 
	d="
M384.313171,198.939758 
	C384.216492,198.773315 384.366028,198.555908 384.678314,198.212708 
	C384.922729,198.405899 384.828827,198.673187 384.313171,198.939758 
z"/>
<path fill="#225D7B" opacity="1.000000" stroke="none" 
	d="
M386.459564,193.736710 
	C386.356812,193.734238 386.501190,193.435165 386.583313,193.409042 
	C386.665405,193.382919 386.562317,193.739182 386.459564,193.736710 
z"/>
<path fill="#14415F" opacity="1.000000" stroke="none" 
	d="
M368.774506,192.111969 
	C368.837524,192.240875 368.697662,192.449905 368.407196,192.782761 
	C368.250336,192.624847 368.355316,192.386673 368.774506,192.111969 
z"/>
<path fill="#1A5266" opacity="1.000000" stroke="none" 
	d="
M278.650848,100.219360 
	C278.687958,100.370880 278.543213,100.496475 278.252930,100.655853 
	C278.149567,100.475243 278.270081,100.309845 278.650848,100.219360 
z"/>
<path fill="#19546D" opacity="1.000000" stroke="none" 
	d="
M343.284302,164.731384 
	C343.269379,164.573639 343.478577,164.412857 343.862915,164.158813 
	C343.943970,164.348587 343.767426,164.569504 343.284302,164.731384 
z"/>
<path fill="#1F6072" opacity="1.000000" stroke="none" 
	d="
M310.698730,160.259796 
	C310.740997,160.430374 310.571106,160.584183 310.236084,160.802765 
	C310.110413,160.600891 310.248932,160.392731 310.698730,160.259796 
z"/>
<path fill="#000000" opacity="1.000000" stroke="none" 
	d="
M281.990723,156.071869 
	C282.154694,157.947693 282.318665,159.823502 282.002502,161.998627 
	C281.258331,162.453522 281.069885,162.673828 280.957062,162.958847 
	C280.957062,162.958847 280.941223,162.948227 280.928223,162.954315 
	C279.277710,162.695496 276.826630,165.553711 276.114960,161.371033 
	C276.656189,160.505188 277.203430,159.979813 278.168365,159.064240 
	C279.720947,157.806656 280.855835,156.939255 281.990723,156.071869 
z"/>
<path fill="#000000" opacity="1.000000" stroke="none" 
	d="
M391.443420,156.981903 
	C381.317627,152.290543 380.740356,151.168686 382.256134,139.753296 
	C382.271332,139.638992 382.475525,139.549805 383.633972,138.541840 
	C387.021790,142.029327 390.506836,145.616928 393.685364,149.758881 
	C393.575500,151.523315 393.772217,152.733414 393.968903,153.943512 
	C393.977905,154.694138 393.986908,155.444763 393.945770,156.566986 
	C393.194641,156.954712 392.493652,156.970825 391.443420,156.981903 
z"/>
<path fill="#000000" opacity="1.000000" stroke="none" 
	d="
M399.835266,158.450226 
	C399.944641,156.864441 400.124146,155.652008 400.632568,154.276550 
	C403.867615,158.121719 406.773804,162.129929 409.679993,166.138138 
	C409.371460,166.440628 409.062958,166.743134 408.754425,167.045639 
	C406.228546,163.785049 400.594055,164.338058 399.835266,158.450226 
z"/>
<path fill="#307389" opacity="1.000000" stroke="none" 
	d="
M402.511200,152.502930 
	C402.507782,152.485428 402.514618,152.520447 402.511200,152.502930 
z"/>
<path fill="#000000" opacity="1.000000" stroke="none" 
	d="
M299.960876,139.042953 
	C299.982147,142.364319 300.447540,145.744751 299.920380,148.962585 
	C299.577728,151.054459 297.789154,152.909439 296.311920,155.054321 
	C294.091461,155.761978 292.207489,156.285889 290.355835,156.800797 
	C287.723236,151.598206 288.444824,147.301376 292.520386,143.984100 
	C294.446686,142.416214 296.502045,141.006882 298.967102,139.279007 
	C299.607239,139.044296 299.779175,139.056259 299.951080,139.068237 
	C299.951080,139.068237 299.983856,139.033035 299.960876,139.042953 
z"/>
<path fill="#194A64" opacity="1.000000" stroke="none" 
	d="
M299.929413,138.685852 
	C299.779175,139.056259 299.607239,139.044296 299.176270,139.024109 
	C297.132111,139.000809 295.347046,138.985733 293.243195,138.904678 
	C294.166229,137.169388 295.408020,135.500061 296.849609,133.614502 
	C297.487091,133.321152 297.924744,133.244019 298.692749,133.126160 
	C299.317993,134.824768 299.612885,136.564117 299.929413,138.685852 
z"/>
<path fill="#113355" opacity="1.000000" stroke="none" 
	d="
M281.988129,155.867294 
	C280.855835,156.939255 279.720947,157.806656 278.316711,158.819168 
	C278.674835,157.046402 278.244904,153.867172 281.988129,155.867294 
z"/>
<path fill="#113355" opacity="1.000000" stroke="none" 
	d="
M281.130188,162.842422 
	C281.069885,162.673828 281.258331,162.453522 281.737000,162.250702 
	C281.742157,162.385895 281.526062,162.560074 281.130188,162.842422 
z"/>
<path fill="#276A83" opacity="1.000000" stroke="none" 
	d="
M394.127899,153.742371 
	C393.772217,152.733414 393.575500,151.523315 393.659241,150.126770 
	C394.055389,151.140625 394.171143,152.340927 394.127899,153.742371 
z"/>
<path fill="#2B6F8F" opacity="1.000000" stroke="none" 
	d="
M378.878357,156.826996 
	C378.492920,156.745804 377.981934,156.506912 377.222229,156.133255 
	C377.566589,156.222092 378.159729,156.445694 378.878357,156.826996 
z"/>
<path fill="#000000" opacity="1.000000" stroke="none" 
	d="
M327.776520,125.306313 
	C330.451447,124.728386 332.864075,124.415909 335.628754,124.057838 
	C335.628754,131.469223 335.628754,138.535339 335.303284,145.899826 
	C331.548706,146.198181 328.119568,146.198181 324.030090,146.198181 
	C324.030090,140.130402 323.823242,134.585419 324.188629,129.078384 
	C324.270721,127.841408 326.352844,126.737129 327.776520,125.306313 
z"/>
<path fill="#000000" opacity="1.000000" stroke="none" 
	d="
M311.349030,149.686310 
	C309.669800,150.096481 308.248383,150.275909 305.910370,150.571030 
	C305.910370,147.207733 305.910370,144.047958 305.851349,140.439178 
	C304.974884,134.017502 308.217316,131.865128 317.870728,129.450211 
	C317.870728,133.782074 317.594391,137.985794 317.942688,142.137115 
	C318.350861,147.002213 315.837860,148.853821 311.349030,149.686310 
z"/>
<path fill="#1C566B" opacity="1.000000" stroke="none" 
	d="
M323.111206,121.858383 
	C323.076996,121.737152 323.247803,121.527298 323.661072,121.275597 
	C323.644684,121.360435 323.448914,121.539108 323.111206,121.858383 
z"/>
<path fill="#2C7380" opacity="1.000000" stroke="none" 
	d="
M372.002930,137.996964 
	C372.005829,137.993927 371.972107,137.974274 371.983032,137.989929 
	C371.993988,138.005600 372.000000,138.000000 372.002930,137.996964 
z"/>
</svg>